{
	"asset":{
		"generator":"Khronos glTF Blender I/O v4.1.63",
		"version":"2.0"
	},
	"scene":0,
	"scenes":[
		{
			"name":"Scene",
			"nodes":[
				0,
				1,
				2,
				3,
				4,
				5
			]
		}
	],
	"nodes":[
		{
			"mesh":0,
			"name":"Curve.004",
			"rotation":[
				0.8040875792503357,
				0.14771932363510132,
				-0.10878817737102509,
				0.5654973983764648
			],
			"scale":[
				4.999503135681152,
				4.999502658843994,
				4.999502658843994
			],
			"translation":[
				-0.2131730020046234,
				0.031979430466890335,
				0.09761800616979599
			]
		},
		{
			"mesh":1,
			"name":"Curve.005",
			"rotation":[
				0.8040875792503357,
				0.14771932363510132,
				-0.10878817737102509,
				0.5654973983764648
			],
			"scale":[
				4.999503135681152,
				4.999502658843994,
				4.999502658843994
			],
			"translation":[
				0.31244194507598877,
				-0.2223723977804184,
				-0.21027715504169464
			]
		},
		{
			"mesh":2,
			"name":"Curve.006",
			"rotation":[
				0.8040875792503357,
				0.14771932363510132,
				-0.10878817737102509,
				0.5654973983764648
			],
			"scale":[
				4.999503135681152,
				4.999502658843994,
				4.999502658843994
			],
			"translation":[
				0.3151138126850128,
				0.09684480726718903,
				-0.09610674530267715
			]
		},
		{
			"mesh":3,
			"name":"Curve.007",
			"rotation":[
				0.8040875792503357,
				0.14771932363510132,
				-0.10878817737102509,
				0.5654973983764648
			],
			"scale":[
				4.999503135681152,
				4.999502658843994,
				4.999502658843994
			],
			"translation":[
				-0.21051345765590668,
				0.34975749254226685,
				0.21127378940582275
			]
		},
		{
			"mesh":4,
			"name":"Curve.008",
			"rotation":[
				0.8040875792503357,
				0.14771932363510132,
				-0.10878817737102509,
				0.5654973983764648
			],
			"scale":[
				4.999503135681152,
				4.999502658843994,
				4.999502658843994
			],
			"translation":[
				-0.21584482491016388,
				-0.28723782300949097,
				-0.01655244082212448
			]
		},
		{
			"mesh":5,
			"name":"Curve.009",
			"rotation":[
				0.8040875792503357,
				0.14771932363510132,
				-0.10878817737102509,
				0.5654973983764648
			],
			"scale":[
				4.999505043029785,
				4.999502658843994,
				4.999502658843994
			],
			"translation":[
				0.3177735507488251,
				0.4146229922771454,
				0.017549004405736923
			]
		}
	],
	"materials":[
		{
			"doubleSided":true,
			"name":"Material.001",
			"pbrMetallicRoughness":{
				"baseColorFactor":[
					0.8000000715255737,
					0,
					0.0067141358740627766,
					1
				],
				"metallicFactor":0,
				"roughnessFactor":0.4000000059604645
			}
		}
	],
	"meshes":[
		{
			"name":"Curve.004",
			"primitives":[
				{
					"attributes":{
						"POSITION":0,
						"NORMAL":1,
						"TEXCOORD_0":2
					},
					"indices":3,
					"material":0
				}
			]
		},
		{
			"name":"Curve.005",
			"primitives":[
				{
					"attributes":{
						"POSITION":4,
						"NORMAL":5,
						"TEXCOORD_0":6
					},
					"indices":7,
					"material":0
				}
			]
		},
		{
			"name":"Curve.006",
			"primitives":[
				{
					"attributes":{
						"POSITION":8,
						"NORMAL":9,
						"TEXCOORD_0":10
					},
					"indices":11,
					"material":0
				}
			]
		},
		{
			"name":"Curve.007",
			"primitives":[
				{
					"attributes":{
						"POSITION":12,
						"NORMAL":13,
						"TEXCOORD_0":14
					},
					"indices":15,
					"material":0
				}
			]
		},
		{
			"name":"Curve.008",
			"primitives":[
				{
					"attributes":{
						"POSITION":16,
						"NORMAL":17,
						"TEXCOORD_0":18
					},
					"indices":19,
					"material":0
				}
			]
		},
		{
			"name":"Curve.009",
			"primitives":[
				{
					"attributes":{
						"POSITION":20,
						"NORMAL":21,
						"TEXCOORD_0":22
					},
					"indices":23,
					"material":0
				}
			]
		}
	],
	"accessors":[
		{
			"bufferView":0,
			"componentType":5126,
			"count":3363,
			"max":[
				0.07458894699811935,
				0.01477219071239233,
				0.03391803056001663
			],
			"min":[
				-0.06398040801286697,
				-0.014227572828531265,
				-0.033802375197410583
			],
			"type":"VEC3"
		},
		{
			"bufferView":1,
			"componentType":5126,
			"count":3363,
			"type":"VEC3"
		},
		{
			"bufferView":2,
			"componentType":5126,
			"count":3363,
			"type":"VEC2"
		},
		{
			"bufferView":3,
			"componentType":5123,
			"count":6648,
			"type":"SCALAR"
		},
		{
			"bufferView":4,
			"componentType":5126,
			"count":4391,
			"max":[
				0.07503277063369751,
				0.014773105271160603,
				0.03382563218474388
			],
			"min":[
				-0.07623672485351562,
				-0.014227574691176414,
				-0.03389299288392067
			],
			"type":"VEC3"
		},
		{
			"bufferView":5,
			"componentType":5126,
			"count":4391,
			"type":"VEC3"
		},
		{
			"bufferView":6,
			"componentType":5126,
			"count":4391,
			"type":"VEC2"
		},
		{
			"bufferView":7,
			"componentType":5123,
			"count":8982,
			"type":"SCALAR"
		},
		{
			"bufferView":8,
			"componentType":5126,
			"count":4400,
			"max":[
				0.07503277063369751,
				0.014772092923521996,
				0.0587441548705101
			],
			"min":[
				-0.063535176217556,
				-0.01422757189720869,
				-0.0337994359433651
			],
			"type":"VEC3"
		},
		{
			"bufferView":9,
			"componentType":5126,
			"count":4400,
			"type":"VEC3"
		},
		{
			"bufferView":10,
			"componentType":5126,
			"count":4400,
			"type":"VEC2"
		},
		{
			"bufferView":11,
			"componentType":5123,
			"count":9024,
			"type":"SCALAR"
		},
		{
			"bufferView":12,
			"componentType":5126,
			"count":8524,
			"max":[
				0.06358522921800613,
				0.014772435650229454,
				0.05853094160556793
			],
			"min":[
				-0.08881177008152008,
				-0.01422757189720869,
				-0.034012485295534134
			],
			"type":"VEC3"
		},
		{
			"bufferView":13,
			"componentType":5126,
			"count":8524,
			"type":"VEC3"
		},
		{
			"bufferView":14,
			"componentType":5126,
			"count":8524,
			"type":"VEC2"
		},
		{
			"bufferView":15,
			"componentType":5123,
			"count":9024,
			"type":"SCALAR"
		},
		{
			"bufferView":16,
			"componentType":5126,
			"count":4375,
			"max":[
				0.06188850477337837,
				0.014772116206586361,
				0.033825624734163284
			],
			"min":[
				-0.0884166955947876,
				-0.014227574691176414,
				-0.03389185667037964
			],
			"type":"VEC3"
		},
		{
			"bufferView":17,
			"componentType":5126,
			"count":4375,
			"type":"VEC3"
		},
		{
			"bufferView":18,
			"componentType":5126,
			"count":4375,
			"type":"VEC2"
		},
		{
			"bufferView":19,
			"componentType":5123,
			"count":8826,
			"type":"SCALAR"
		},
		{
			"bufferView":20,
			"componentType":5126,
			"count":4436,
			"max":[
				0.05020016059279442,
				0.014772124588489532,
				0.03397366777062416
			],
			"min":[
				-0.07453863322734833,
				-0.014227570965886116,
				-0.058559540659189224
			],
			"type":"VEC3"
		},
		{
			"bufferView":21,
			"componentType":5126,
			"count":4436,
			"type":"VEC3"
		},
		{
			"bufferView":22,
			"componentType":5126,
			"count":4436,
			"type":"VEC2"
		},
		{
			"bufferView":23,
			"componentType":5123,
			"count":9024,
			"type":"SCALAR"
		}
	],
	"bufferViews":[
		{
			"buffer":0,
			"byteLength":40356,
			"byteOffset":0,
			"target":34962
		},
		{
			"buffer":0,
			"byteLength":40356,
			"byteOffset":40356,
			"target":34962
		},
		{
			"buffer":0,
			"byteLength":26904,
			"byteOffset":80712,
			"target":34962
		},
		{
			"buffer":0,
			"byteLength":13296,
			"byteOffset":107616,
			"target":34963
		},
		{
			"buffer":0,
			"byteLength":52692,
			"byteOffset":120912,
			"target":34962
		},
		{
			"buffer":0,
			"byteLength":52692,
			"byteOffset":173604,
			"target":34962
		},
		{
			"buffer":0,
			"byteLength":35128,
			"byteOffset":226296,
			"target":34962
		},
		{
			"buffer":0,
			"byteLength":17964,
			"byteOffset":261424,
			"target":34963
		},
		{
			"buffer":0,
			"byteLength":52800,
			"byteOffset":279388,
			"target":34962
		},
		{
			"buffer":0,
			"byteLength":52800,
			"byteOffset":332188,
			"target":34962
		},
		{
			"buffer":0,
			"byteLength":35200,
			"byteOffset":384988,
			"target":34962
		},
		{
			"buffer":0,
			"byteLength":18048,
			"byteOffset":420188,
			"target":34963
		},
		{
			"buffer":0,
			"byteLength":102288,
			"byteOffset":438236,
			"target":34962
		},
		{
			"buffer":0,
			"byteLength":102288,
			"byteOffset":540524,
			"target":34962
		},
		{
			"buffer":0,
			"byteLength":68192,
			"byteOffset":642812,
			"target":34962
		},
		{
			"buffer":0,
			"byteLength":18048,
			"byteOffset":711004,
			"target":34963
		},
		{
			"buffer":0,
			"byteLength":52500,
			"byteOffset":729052,
			"target":34962
		},
		{
			"buffer":0,
			"byteLength":52500,
			"byteOffset":781552,
			"target":34962
		},
		{
			"buffer":0,
			"byteLength":35000,
			"byteOffset":834052,
			"target":34962
		},
		{
			"buffer":0,
			"byteLength":17652,
			"byteOffset":869052,
			"target":34963
		},
		{
			"buffer":0,
			"byteLength":53232,
			"byteOffset":886704,
			"target":34962
		},
		{
			"buffer":0,
			"byteLength":53232,
			"byteOffset":939936,
			"target":34962
		},
		{
			"buffer":0,
			"byteLength":35488,
			"byteOffset":993168,
			"target":34962
		},
		{
			"buffer":0,
			"byteLength":18048,
			"byteOffset":1028656,
			"target":34963
		}
	],
	"buffers":[
		{
			"byteLength":1046704,
			"uri":"Jigsaws_07_LowPoly.bin"
		}
	]
}
