{
	"asset":{
		"generator":"Khronos glTF Blender I/O v4.1.63",
		"version":"2.0"
	},
	"scene":0,
	"scenes":[
		{
			"name":"Scene",
			"nodes":[
				0
			]
		}
	],
	"nodes":[
		{
			"mesh":0,
			"name":"Curve.007",
			"rotation":[
				0.8040875792503357,
				0.14771932363510132,
				-0.10878817737102509,
				0.5654973983764648
			],
			"scale":[
				4.999503135681152,
				4.999502658843994,
				4.999502658843994
			],
			"translation":[
				-0.24053247272968292,
				0.2930961549282074,
				0.20470508933067322
			]
		}
	],
	"materials":[
		{
			"doubleSided":true,
			"name":"Material.001",
			"pbrMetallicRoughness":{
				"baseColorFactor":[
					0.8000000715255737,
					0,
					0.0067141358740627766,
					1
				],
				"metallicFactor":0,
				"roughnessFactor":0.4000000059604645
			}
		}
	],
	"meshes":[
		{
			"name":"Curve.007",
			"primitives":[
				{
					"attributes":{
						"POSITION":0,
						"NORMAL":1,
						"TEXCOORD_0":2
					},
					"indices":3,
					"material":0
				}
			]
		}
	],
	"accessors":[
		{
			"bufferView":0,
			"componentType":5126,
			"count":1841,
			"max":[
				0.07003537565469742,
				0.014499999582767487,
				0.04737474024295807
			],
			"min":[
				-0.08236774057149887,
				-0.014499999582767487,
				-0.045176491141319275
			],
			"type":"VEC3"
		},
		{
			"bufferView":1,
			"componentType":5126,
			"count":1841,
			"type":"VEC3"
		},
		{
			"bufferView":2,
			"componentType":5126,
			"count":1841,
			"type":"VEC2"
		},
		{
			"bufferView":3,
			"componentType":5123,
			"count":5460,
			"type":"SCALAR"
		}
	],
	"bufferViews":[
		{
			"buffer":0,
			"byteLength":22092,
			"byteOffset":0,
			"target":34962
		},
		{
			"buffer":0,
			"byteLength":22092,
			"byteOffset":22092,
			"target":34962
		},
		{
			"buffer":0,
			"byteLength":14728,
			"byteOffset":44184,
			"target":34962
		},
		{
			"buffer":0,
			"byteLength":10920,
			"byteOffset":58912,
			"target":34963
		}
	],
	"buffers":[
		{
			"byteLength":69832,
			"uri":"Jigsaw.0005.bin"
		}
	]
}
