{
	"asset":{
		"generator":"Khronos glTF Blender I/O v4.1.63",
		"version":"2.0"
	},
	"scene":0,
	"scenes":[
		{
			"name":"Scene",
			"nodes":[
				0,
				1,
				2,
				3,
				4,
				5
			]
		}
	],
	"nodes":[
		{
			"mesh":0,
			"name":"Curve.004",
			"rotation":[
				0.8040875792503357,
				0.14771932363510132,
				-0.10878817737102509,
				0.5654973983764648
			],
			"scale":[
				4.999503135681152,
				4.999502658843994,
				4.999502658843994
			],
			"translation":[
				-0.2131730169057846,
				0.031979355961084366,
				0.0976179838180542
			]
		},
		{
			"mesh":1,
			"name":"Curve.005",
			"rotation":[
				0.8040875792503357,
				0.14771932363510132,
				-0.10878817737102509,
				0.5654973983764648
			],
			"scale":[
				4.999503135681152,
				4.999502658843994,
				4.999502658843994
			],
			"translation":[
				0.31244194507598877,
				-0.2223723977804184,
				-0.21027715504169464
			]
		},
		{
			"mesh":2,
			"name":"Curve.006",
			"rotation":[
				0.8040875792503357,
				0.14771932363510132,
				-0.10878817737102509,
				0.5654973983764648
			],
			"scale":[
				4.999503135681152,
				4.999502658843994,
				4.999502658843994
			],
			"translation":[
				0.3151138126850128,
				0.09684480726718903,
				-0.09610674530267715
			]
		},
		{
			"mesh":3,
			"name":"Curve.007",
			"rotation":[
				0.8040875792503357,
				0.14771932363510132,
				-0.10878817737102509,
				0.5654973983764648
			],
			"scale":[
				4.999503135681152,
				4.999502658843994,
				4.999502658843994
			],
			"translation":[
				-0.21051345765590668,
				0.3497577905654907,
				0.2112739086151123
			]
		},
		{
			"mesh":4,
			"name":"Curve.008",
			"rotation":[
				0.8040875792503357,
				0.14771932363510132,
				-0.10878817737102509,
				0.5654973983764648
			],
			"scale":[
				4.999503135681152,
				4.999502658843994,
				4.999502658843994
			],
			"translation":[
				-0.21584482491016388,
				-0.28723782300949097,
				-0.01655244082212448
			]
		},
		{
			"mesh":5,
			"name":"Curve.009",
			"rotation":[
				0.8040875792503357,
				0.14771932363510132,
				-0.10878817737102509,
				0.5654973983764648
			],
			"scale":[
				4.999505043029785,
				4.999502658843994,
				4.999502658843994
			],
			"translation":[
				0.3177735507488251,
				0.4146229922771454,
				0.017549004405736923
			]
		}
	],
	"materials":[
		{
			"doubleSided":true,
			"name":"Material.001",
			"pbrMetallicRoughness":{
				"baseColorFactor":[
					0.8000000715255737,
					0,
					0.0067141358740627766,
					1
				],
				"metallicFactor":0,
				"roughnessFactor":0.4000000059604645
			}
		}
	],
	"meshes":[
		{
			"name":"Curve.004",
			"primitives":[
				{
					"attributes":{
						"POSITION":0,
						"NORMAL":1,
						"TEXCOORD_0":2
					},
					"indices":3,
					"material":0
				}
			]
		},
		{
			"name":"Curve.005",
			"primitives":[
				{
					"attributes":{
						"POSITION":4,
						"NORMAL":5,
						"TEXCOORD_0":6
					},
					"indices":7,
					"material":0
				}
			]
		},
		{
			"name":"Curve.006",
			"primitives":[
				{
					"attributes":{
						"POSITION":8,
						"NORMAL":9,
						"TEXCOORD_0":10
					},
					"indices":11,
					"material":0
				}
			]
		},
		{
			"name":"Curve.007",
			"primitives":[
				{
					"attributes":{
						"POSITION":12,
						"NORMAL":13,
						"TEXCOORD_0":14
					},
					"indices":15,
					"material":0
				}
			]
		},
		{
			"name":"Curve.008",
			"primitives":[
				{
					"attributes":{
						"POSITION":16,
						"NORMAL":17,
						"TEXCOORD_0":18
					},
					"indices":19,
					"material":0
				}
			]
		},
		{
			"name":"Curve.009",
			"primitives":[
				{
					"attributes":{
						"POSITION":20,
						"NORMAL":21,
						"TEXCOORD_0":22
					},
					"indices":23,
					"material":0
				}
			]
		}
	],
	"accessors":[
		{
			"bufferView":0,
			"componentType":5126,
			"count":20024,
			"max":[
				0.07459354400634766,
				0.014772425405681133,
				0.03391803056001663
			],
			"min":[
				-0.06398040801286697,
				-0.014227572828531265,
				-0.033802375197410583
			],
			"type":"VEC3"
		},
		{
			"bufferView":1,
			"componentType":5126,
			"count":20024,
			"type":"VEC3"
		},
		{
			"bufferView":2,
			"componentType":5126,
			"count":20024,
			"type":"VEC2"
		},
		{
			"bufferView":3,
			"componentType":5123,
			"count":44340,
			"type":"SCALAR"
		},
		{
			"bufferView":4,
			"componentType":5126,
			"count":27382,
			"max":[
				0.07503747940063477,
				0.014772424474358559,
				0.03382563218474388
			],
			"min":[
				-0.07623672485351562,
				-0.014227574691176414,
				-0.03389478102326393
			],
			"type":"VEC3"
		},
		{
			"bufferView":5,
			"componentType":5126,
			"count":27382,
			"type":"VEC3"
		},
		{
			"bufferView":6,
			"componentType":5126,
			"count":27382,
			"type":"VEC2"
		},
		{
			"bufferView":7,
			"componentType":5123,
			"count":59916,
			"type":"SCALAR"
		},
		{
			"bufferView":8,
			"componentType":5126,
			"count":27461,
			"max":[
				0.07503747940063477,
				0.014772427268326283,
				0.05874886363744736
			],
			"min":[
				-0.06353646516799927,
				-0.014227570965886116,
				-0.03380236774682999
			],
			"type":"VEC3"
		},
		{
			"bufferView":9,
			"componentType":5126,
			"count":27461,
			"type":"VEC3"
		},
		{
			"bufferView":10,
			"componentType":5126,
			"count":27461,
			"type":"VEC2"
		},
		{
			"bufferView":11,
			"componentType":5123,
			"count":60180,
			"type":"SCALAR"
		},
		{
			"bufferView":12,
			"componentType":5126,
			"count":37310,
			"max":[
				0.06358665227890015,
				0.014772428199648857,
				0.05853565037250519
			],
			"min":[
				-0.08881647884845734,
				-0.014227570965886116,
				-0.034015581011772156
			],
			"type":"VEC3"
		},
		{
			"bufferView":13,
			"componentType":5126,
			"count":37310,
			"type":"VEC3"
		},
		{
			"bufferView":14,
			"componentType":5126,
			"count":37310,
			"type":"VEC2"
		},
		{
			"bufferView":15,
			"componentType":5123,
			"count":60180,
			"type":"SCALAR"
		},
		{
			"bufferView":16,
			"componentType":5126,
			"count":27161,
			"max":[
				0.061893217265605927,
				0.014787381514906883,
				0.033825624734163284
			],
			"min":[
				-0.08842141181230545,
				-0.01422757375985384,
				-0.03389478847384453
			],
			"type":"VEC3"
		},
		{
			"bufferView":17,
			"componentType":5126,
			"count":27161,
			"type":"VEC3"
		},
		{
			"bufferView":18,
			"componentType":5126,
			"count":27161,
			"type":"VEC2"
		},
		{
			"bufferView":19,
			"componentType":5123,
			"count":58860,
			"type":"SCALAR"
		},
		{
			"bufferView":20,
			"componentType":5126,
			"count":27547,
			"max":[
				0.05020143836736679,
				0.014772430062294006,
				0.033975694328546524
			],
			"min":[
				-0.07454333454370499,
				-0.014227570034563541,
				-0.05856424570083618
			],
			"type":"VEC3"
		},
		{
			"bufferView":21,
			"componentType":5126,
			"count":27547,
			"type":"VEC3"
		},
		{
			"bufferView":22,
			"componentType":5126,
			"count":27547,
			"type":"VEC2"
		},
		{
			"bufferView":23,
			"componentType":5123,
			"count":60180,
			"type":"SCALAR"
		}
	],
	"bufferViews":[
		{
			"buffer":0,
			"byteLength":240288,
			"byteOffset":0,
			"target":34962
		},
		{
			"buffer":0,
			"byteLength":240288,
			"byteOffset":240288,
			"target":34962
		},
		{
			"buffer":0,
			"byteLength":160192,
			"byteOffset":480576,
			"target":34962
		},
		{
			"buffer":0,
			"byteLength":88680,
			"byteOffset":640768,
			"target":34963
		},
		{
			"buffer":0,
			"byteLength":328584,
			"byteOffset":729448,
			"target":34962
		},
		{
			"buffer":0,
			"byteLength":328584,
			"byteOffset":1058032,
			"target":34962
		},
		{
			"buffer":0,
			"byteLength":219056,
			"byteOffset":1386616,
			"target":34962
		},
		{
			"buffer":0,
			"byteLength":119832,
			"byteOffset":1605672,
			"target":34963
		},
		{
			"buffer":0,
			"byteLength":329532,
			"byteOffset":1725504,
			"target":34962
		},
		{
			"buffer":0,
			"byteLength":329532,
			"byteOffset":2055036,
			"target":34962
		},
		{
			"buffer":0,
			"byteLength":219688,
			"byteOffset":2384568,
			"target":34962
		},
		{
			"buffer":0,
			"byteLength":120360,
			"byteOffset":2604256,
			"target":34963
		},
		{
			"buffer":0,
			"byteLength":447720,
			"byteOffset":2724616,
			"target":34962
		},
		{
			"buffer":0,
			"byteLength":447720,
			"byteOffset":3172336,
			"target":34962
		},
		{
			"buffer":0,
			"byteLength":298480,
			"byteOffset":3620056,
			"target":34962
		},
		{
			"buffer":0,
			"byteLength":120360,
			"byteOffset":3918536,
			"target":34963
		},
		{
			"buffer":0,
			"byteLength":325932,
			"byteOffset":4038896,
			"target":34962
		},
		{
			"buffer":0,
			"byteLength":325932,
			"byteOffset":4364828,
			"target":34962
		},
		{
			"buffer":0,
			"byteLength":217288,
			"byteOffset":4690760,
			"target":34962
		},
		{
			"buffer":0,
			"byteLength":117720,
			"byteOffset":4908048,
			"target":34963
		},
		{
			"buffer":0,
			"byteLength":330564,
			"byteOffset":5025768,
			"target":34962
		},
		{
			"buffer":0,
			"byteLength":330564,
			"byteOffset":5356332,
			"target":34962
		},
		{
			"buffer":0,
			"byteLength":220376,
			"byteOffset":5686896,
			"target":34962
		},
		{
			"buffer":0,
			"byteLength":120360,
			"byteOffset":5907272,
			"target":34963
		}
	],
	"buffers":[
		{
			"byteLength":6027632,
			"uri":"Jigsaws_06.bin"
		}
	]
}
