{
	"asset":{
		"generator":"Khronos glTF Blender I/O v4.1.63",
		"version":"2.0"
	},
	"scene":0,
	"scenes":[
		{
			"name":"Scene",
			"nodes":[
				0,
				1,
				2,
				3,
				4,
				5
			]
		}
	],
	"nodes":[
		{
			"mesh":0,
			"name":"Curve.004",
			"rotation":[
				0.8040875792503357,
				0.14771932363510132,
				-0.10878817737102509,
				0.5654973983764648
			],
			"scale":[
				4.999503135681152,
				4.999502658843994,
				4.999502658843994
			]
		},
		{
			"mesh":1,
			"name":"Curve.005",
			"rotation":[
				0.8040875792503357,
				0.14771932363510132,
				-0.10878817737102509,
				0.5654973983764648
			],
			"scale":[
				4.999503135681152,
				4.999502658843994,
				4.999502658843994
			]
		},
		{
			"mesh":2,
			"name":"Curve.006",
			"rotation":[
				0.8040875792503357,
				0.14771932363510132,
				-0.10878817737102509,
				0.5654973983764648
			],
			"scale":[
				4.999503135681152,
				4.999502658843994,
				4.999502658843994
			]
		},
		{
			"mesh":3,
			"name":"Curve.007",
			"rotation":[
				0.8040875792503357,
				0.14771932363510132,
				-0.10878817737102509,
				0.5654973983764648
			],
			"scale":[
				4.999503135681152,
				4.999502658843994,
				4.999502658843994
			]
		},
		{
			"mesh":4,
			"name":"Curve.008",
			"rotation":[
				0.8040875792503357,
				0.14771932363510132,
				-0.10878817737102509,
				0.5654973983764648
			],
			"scale":[
				4.999503135681152,
				4.999502658843994,
				4.999502658843994
			]
		},
		{
			"mesh":5,
			"name":"Curve.009",
			"rotation":[
				0.8040875792503357,
				0.14771932363510132,
				-0.10878817737102509,
				0.5654973983764648
			],
			"scale":[
				4.999505043029785,
				4.999502658843994,
				4.999502658843994
			]
		}
	],
	"meshes":[
		{
			"name":"Curve.004",
			"primitives":[
				{
					"attributes":{
						"POSITION":0
					},
					"indices":1
				}
			]
		},
		{
			"name":"Curve.005",
			"primitives":[
				{
					"attributes":{
						"POSITION":2
					},
					"indices":3
				}
			]
		},
		{
			"name":"Curve.006",
			"primitives":[
				{
					"attributes":{
						"POSITION":4
					},
					"indices":5
				}
			]
		},
		{
			"name":"Curve.007",
			"primitives":[
				{
					"attributes":{
						"POSITION":6
					},
					"indices":7
				}
			]
		},
		{
			"name":"Curve.008",
			"primitives":[
				{
					"attributes":{
						"POSITION":8
					},
					"indices":9
				}
			]
		},
		{
			"name":"Curve.009",
			"primitives":[
				{
					"attributes":{
						"POSITION":10
					},
					"indices":11
				}
			]
		}
	],
	"accessors":[
		{
			"bufferView":0,
			"componentType":5126,
			"count":7392,
			"max":[
				0.028879130259156227,
				0.014500000514090061,
				0.02165604941546917
			],
			"min":[
				-0.10969481617212296,
				-0.014499997720122337,
				-0.046064361929893494
			],
			"type":"VEC3"
		},
		{
			"bufferView":1,
			"componentType":5123,
			"count":44340,
			"type":"SCALAR"
		},
		{
			"bufferView":2,
			"componentType":5126,
			"count":9988,
			"max":[
				0.14261700212955475,
				0.014499999582767487,
				0.08937645703554153
			],
			"min":[
				-0.008657202124595642,
				-0.014499999582767487,
				0.021656043827533722
			],
			"type":"VEC3"
		},
		{
			"bufferView":3,
			"componentType":5123,
			"count":59916,
			"type":"SCALAR"
		},
		{
			"bufferView":4,
			"componentType":5126,
			"count":10032,
			"max":[
				0.14261700212955475,
				0.014499998651444912,
				0.04648686200380325
			],
			"min":[
				0.004043057560920715,
				-0.014499999582767487,
				-0.04606436938047409
			],
			"type":"VEC3"
		},
		{
			"bufferView":5,
			"componentType":5123,
			"count":60180,
			"type":"SCALAR"
		},
		{
			"bufferView":6,
			"componentType":5126,
			"count":10032,
			"max":[
				0.017872221767902374,
				0.014499999582767487,
				-0.021233543753623962
			],
			"min":[
				-0.1345309019088745,
				-0.014499999582767487,
				-0.1137847751379013
			],
			"type":"VEC3"
		},
		{
			"bufferView":7,
			"componentType":5123,
			"count":60180,
			"type":"SCALAR"
		},
		{
			"bufferView":8,
			"componentType":5126,
			"count":9812,
			"max":[
				0.016178864985704422,
				0.017500000074505806,
				0.08937644958496094
			],
			"min":[
				-0.13413576781749725,
				-0.014499998651444912,
				0.021656036376953125
			],
			"type":"VEC3"
		},
		{
			"bufferView":9,
			"componentType":5123,
			"count":58860,
			"type":"SCALAR"
		},
		{
			"bufferView":10,
			"componentType":5126,
			"count":10032,
			"max":[
				0.11778102070093155,
				0.014499999582767487,
				-0.045793499797582626
			],
			"min":[
				-0.006963752210140228,
				-0.014500000514090061,
				-0.13833343982696533
			],
			"type":"VEC3"
		},
		{
			"bufferView":11,
			"componentType":5123,
			"count":60180,
			"type":"SCALAR"
		}
	],
	"bufferViews":[
		{
			"buffer":0,
			"byteLength":88704,
			"byteOffset":0,
			"target":34962
		},
		{
			"buffer":0,
			"byteLength":88680,
			"byteOffset":88704,
			"target":34963
		},
		{
			"buffer":0,
			"byteLength":119856,
			"byteOffset":177384,
			"target":34962
		},
		{
			"buffer":0,
			"byteLength":119832,
			"byteOffset":297240,
			"target":34963
		},
		{
			"buffer":0,
			"byteLength":120384,
			"byteOffset":417072,
			"target":34962
		},
		{
			"buffer":0,
			"byteLength":120360,
			"byteOffset":537456,
			"target":34963
		},
		{
			"buffer":0,
			"byteLength":120384,
			"byteOffset":657816,
			"target":34962
		},
		{
			"buffer":0,
			"byteLength":120360,
			"byteOffset":778200,
			"target":34963
		},
		{
			"buffer":0,
			"byteLength":117744,
			"byteOffset":898560,
			"target":34962
		},
		{
			"buffer":0,
			"byteLength":117720,
			"byteOffset":1016304,
			"target":34963
		},
		{
			"buffer":0,
			"byteLength":120384,
			"byteOffset":1134024,
			"target":34962
		},
		{
			"buffer":0,
			"byteLength":120360,
			"byteOffset":1254408,
			"target":34963
		}
	],
	"buffers":[
		{
			"byteLength":1374768,
			"uri":"Jigsaws_02.bin"
		}
	]
}
