{
	"asset":{
		"generator":"Khronos glTF Blender I/O v4.1.63",
		"version":"2.0"
	},
	"scene":0,
	"scenes":[
		{
			"name":"Scene",
			"nodes":[
				0,
				1,
				2,
				3,
				4,
				5
			]
		}
	],
	"nodes":[
		{
			"mesh":0,
			"name":"Curve.004",
			"rotation":[
				0.8040875792503357,
				0.14771932363510132,
				-0.10878817737102509,
				0.5654973983764648
			],
			"scale":[
				4.999503135681152,
				4.999502658843994,
				4.999502658843994
			],
			"translation":[
				-0.1293516904115677,
				0.07978474348783493,
				0.081978939473629
			]
		},
		{
			"mesh":1,
			"name":"Curve.005",
			"rotation":[
				0.8040875792503357,
				0.14771932363510132,
				-0.10878817737102509,
				0.5654973983764648
			],
			"scale":[
				4.999503135681152,
				4.999502658843994,
				4.999502658843994
			],
			"translation":[
				0.30833369493484497,
				-0.21017858386039734,
				-0.2026328146457672
			]
		},
		{
			"mesh":2,
			"name":"Curve.006",
			"rotation":[
				0.8040875792503357,
				0.14771932363510132,
				-0.10878817737102509,
				0.5654973983764648
			],
			"scale":[
				4.999503135681152,
				4.999502658843994,
				4.999502658843994
			],
			"translation":[
				0.3320977985858917,
				0.04319892078638077,
				-0.12090674042701721
			]
		},
		{
			"mesh":3,
			"name":"Curve.007",
			"rotation":[
				0.8040875792503357,
				0.14771932363510132,
				-0.10878817737102509,
				0.5654973983764648
			],
			"scale":[
				4.999503135681152,
				4.999502658843994,
				4.999502658843994
			],
			"translation":[
				-0.24053247272968292,
				0.2930961549282074,
				0.20470508933067322
			]
		},
		{
			"mesh":4,
			"name":"Curve.008",
			"rotation":[
				0.8040875792503357,
				0.14771932363510132,
				-0.10878817737102509,
				0.5654973983764648
			],
			"scale":[
				4.999503135681152,
				4.999502658843994,
				4.999502658843994
			],
			"translation":[
				-0.27740347385406494,
				-0.3275637626647949,
				-0.004258416593074799
			]
		},
		{
			"mesh":5,
			"name":"Curve.009",
			"rotation":[
				0.8040875792503357,
				0.14771932363510132,
				-0.10878817737102509,
				0.5654973983764648
			],
			"scale":[
				4.999505043029785,
				4.999502658843994,
				4.999502658843994
			],
			"translation":[
				0.32879990339279175,
				0.4690067768096924,
				0.034207165241241455
			]
		}
	],
	"meshes":[
		{
			"name":"Curve.004",
			"primitives":[
				{
					"attributes":{
						"POSITION":0
					},
					"indices":1
				}
			]
		},
		{
			"name":"Curve.005",
			"primitives":[
				{
					"attributes":{
						"POSITION":2
					},
					"indices":3
				}
			]
		},
		{
			"name":"Curve.006",
			"primitives":[
				{
					"attributes":{
						"POSITION":4
					},
					"indices":5
				}
			]
		},
		{
			"name":"Curve.007",
			"primitives":[
				{
					"attributes":{
						"POSITION":6
					},
					"indices":7
				}
			]
		},
		{
			"name":"Curve.008",
			"primitives":[
				{
					"attributes":{
						"POSITION":8
					},
					"indices":9
				}
			]
		},
		{
			"name":"Curve.009",
			"primitives":[
				{
					"attributes":{
						"POSITION":10
					},
					"indices":11
				}
			]
		}
	],
	"accessors":[
		{
			"bufferView":0,
			"componentType":5126,
			"count":7392,
			"max":[
				0.05679117143154144,
				0.014499999582767487,
				0.04199998080730438
			],
			"min":[
				-0.08178277313709259,
				-0.014499999582767487,
				-0.02572043240070343
			],
			"type":"VEC3"
		},
		{
			"bufferView":1,
			"componentType":5123,
			"count":44340,
			"type":"SCALAR"
		},
		{
			"bufferView":2,
			"componentType":5126,
			"count":9988,
			"max":[
				0.07604755461215973,
				0.014499999582767487,
				0.036630526185035706
			],
			"min":[
				-0.07522664964199066,
				-0.014499999582767487,
				-0.031089887022972107
			],
			"type":"VEC3"
		},
		{
			"bufferView":3,
			"componentType":5123,
			"count":59916,
			"type":"SCALAR"
		},
		{
			"bufferView":4,
			"componentType":5126,
			"count":10032,
			"max":[
				0.07140123844146729,
				0.014499999582767487,
				0.047002002596855164
			],
			"min":[
				-0.06717270612716675,
				-0.014499999582767487,
				-0.04554922878742218
			],
			"type":"VEC3"
		},
		{
			"bufferView":5,
			"componentType":5123,
			"count":60180,
			"type":"SCALAR"
		},
		{
			"bufferView":6,
			"componentType":5126,
			"count":10032,
			"max":[
				0.07003537565469742,
				0.014499999582767487,
				0.04737474024295807
			],
			"min":[
				-0.08236774057149887,
				-0.014499999582767487,
				-0.045176491141319275
			],
			"type":"VEC3"
		},
		{
			"bufferView":7,
			"componentType":5123,
			"count":60180,
			"type":"SCALAR"
		},
		{
			"bufferView":8,
			"componentType":5126,
			"count":9812,
			"max":[
				0.07514213025569916,
				0.017500000074505806,
				0.02696208655834198
			],
			"min":[
				-0.07517249882221222,
				-0.014499999582767487,
				-0.04075832664966583
			],
			"type":"VEC3"
		},
		{
			"bufferView":9,
			"componentType":5123,
			"count":58860,
			"type":"SCALAR"
		},
		{
			"bufferView":10,
			"componentType":5126,
			"count":10032,
			"max":[
				0.04803834855556488,
				0.014499999582767487,
				0.04535721242427826
			],
			"min":[
				-0.0767064243555069,
				-0.014499999582767487,
				-0.04718272387981415
			],
			"type":"VEC3"
		},
		{
			"bufferView":11,
			"componentType":5123,
			"count":60180,
			"type":"SCALAR"
		}
	],
	"bufferViews":[
		{
			"buffer":0,
			"byteLength":88704,
			"byteOffset":0,
			"target":34962
		},
		{
			"buffer":0,
			"byteLength":88680,
			"byteOffset":88704,
			"target":34963
		},
		{
			"buffer":0,
			"byteLength":119856,
			"byteOffset":177384,
			"target":34962
		},
		{
			"buffer":0,
			"byteLength":119832,
			"byteOffset":297240,
			"target":34963
		},
		{
			"buffer":0,
			"byteLength":120384,
			"byteOffset":417072,
			"target":34962
		},
		{
			"buffer":0,
			"byteLength":120360,
			"byteOffset":537456,
			"target":34963
		},
		{
			"buffer":0,
			"byteLength":120384,
			"byteOffset":657816,
			"target":34962
		},
		{
			"buffer":0,
			"byteLength":120360,
			"byteOffset":778200,
			"target":34963
		},
		{
			"buffer":0,
			"byteLength":117744,
			"byteOffset":898560,
			"target":34962
		},
		{
			"buffer":0,
			"byteLength":117720,
			"byteOffset":1016304,
			"target":34963
		},
		{
			"buffer":0,
			"byteLength":120384,
			"byteOffset":1134024,
			"target":34962
		},
		{
			"buffer":0,
			"byteLength":120360,
			"byteOffset":1254408,
			"target":34963
		}
	],
	"buffers":[
		{
			"byteLength":1374768,
			"uri":"Jigsaws.bin"
		}
	]
}
